<svg width="36" height="36" viewBox="0 0 36 36" fill="none" xmlns="http://www.w3.org/2000/svg">
<path d="M0 5C0 2.23858 2.23858 0 5 0H31C33.7614 0 36 2.23858 36 5V31C36 33.7614 33.7614 36 31 36H5C2.23858 36 0 33.7614 0 31V5Z" fill="white"/>
<path d="M11 9C11 10 10 11 9 11C8 11 7 10 7 9C7 8 8 7 9 7C10 7 11 8 11 9Z" fill="#2D2D2D"/>
<path d="M29 9C29 10 28 11 27 11C26 11 25 10 25 9C25 8 26 7 27 7C28 7 29 8 29 9Z" fill="#2D2D2D"/>
<path d="M11 27C11 28 10 29 9 29C8 29 7 28 7 27C7 26 8 25 9 25C10 25 11 26 11 27Z" fill="#2D2D2D"/>
<path d="M29 27C29 28 28 29 27 29C26 29 25 28 25 27C25 26 26 25 27 25C28 25 29 26 29 27Z" fill="#2D2D2D"/>
<path d="M11 18C11 19 10 20 9 20C8 20 7 19 7 18C7 17 8 16 9 16C10 16 11 17 11 18Z" fill="#2D2D2D"/>
<path d="M29 18C29 19 28 20 27 20C26 20 25 19 25 18C25 17 26 16 27 16C28 16 29 17 29 18Z" fill="#2D2D2D"/>
</svg>
